<svg xmlns="http://www.w3.org/2000/svg" viewBox="0 0 48 48"><defs><style>.cls-1{fill:#201602;}</style></defs><title>Asset 7ldpi</title><g id="Layer_2" data-name="Layer 2"><g id="layer_1-2" data-name="layer 1"><path class="cls-1" d="M37,48H7a1,1,0,0,1-1-1V29H8V46H36.59L46,36.59V2H8V7H6V1A1,1,0,0,1,7,0H47a1,1,0,0,1,1,1V37a1,1,0,0,1-.29.71l-10,10A1,1,0,0,1,37,48Z"/><path class="cls-1" d="M23,30H1a1,1,0,0,1-1-1V7A1,1,0,0,1,1,6H23a1,1,0,0,1,1,1V29A1,1,0,0,1,23,30ZM2,28H22V8H2Z"/><path class="cls-1" d="M12,20c-2.21,0-4-2.24-4-5a3.71,3.71,0,0,1,4-4,3.71,3.71,0,0,1,4,4C16,17.76,14.21,20,12,20Zm0-7c-1.79,0-2,1.14-2,2,0,1.6.93,3,2,3s2-1.4,2-3C14,14.14,13.79,13,12,13Z"/><path class="cls-1" d="M19,25H17V21.69a1,1,0,0,0-.84-1L12,20l-4.16.7a1,1,0,0,0-.84,1V25H5V21.69a3,3,0,0,1,2.51-3L11.84,18a1.71,1.71,0,0,1,.32,0l4.33.73a3,3,0,0,1,2.51,3Z"/><path class="cls-1" d="M37,48a.84.84,0,0,1-.38-.08A1,1,0,0,1,36,47V37a1,1,0,0,1,1-1H47a1,1,0,0,1,.92.62,1,1,0,0,1-.21,1.09l-10,10A1,1,0,0,1,37,48Zm1-10v6.59L44.59,38Z"/><rect class="cls-1" x="34" y="8" width="8" height="2"/><rect class="cls-1" x="28" y="8" width="4" height="2"/><rect class="cls-1" x="28" y="13" width="11" height="2"/><rect class="cls-1" x="36" y="18" width="6" height="2"/><rect class="cls-1" x="28" y="18" width="6" height="2"/><rect class="cls-1" x="28" y="23" width="14" height="2"/><rect class="cls-1" x="28" y="28" width="9" height="2"/><rect class="cls-1" x="25" y="33" width="8" height="2"/><rect class="cls-1" x="12" y="33" width="11" height="2"/><rect class="cls-1" x="21" y="38" width="8" height="2"/><rect class="cls-1" x="12" y="38" width="7" height="2"/></g></g></svg>